# 3ds Max Wavefront OBJ Exporter v0.99 - (c)2007 guruware
# File Created: 24.12.2023 21:43:29

#
# object box
#

v  -3.7373 0.0000 11.2750
v  -11.7327 0.0000 -5.3353
v  4.8775 0.0000 -13.3307
v  12.8729 0.0000 3.2795
v  -3.7373 14.6592 11.2750
v  12.8729 14.6592 3.2795
v  4.8775 14.6592 -13.3307
v  -11.7327 14.6592 -5.3353
# 8 vertices

vn -0.2698 -0.5774 0.7706
vn -0.7706 -0.5774 -0.2698
vn 0.2698 -0.5774 -0.7706
vn 0.7706 -0.5774 0.2698
vn -0.2698 0.5774 0.7706
vn 0.7706 0.5774 0.2698
vn 0.2698 0.5774 -0.7706
vn -0.7706 0.5774 -0.2698
# 8 vertex normals

vt 1.0000 0.0000 0.0000
vt 1.0000 1.0000 0.0000
vt 0.0000 1.0000 0.0000
vt 0.0000 0.0000 0.0000
# 4 texture coords

o box
g box
s 2
f 1/1/1 2/2/2 3/3/3 4/4/4 
s 4
f 5/4/5 6/1/6 7/2/7 8/3/8 
s 8
f 1/4/1 4/1/4 6/2/6 5/3/5 
s 16
f 4/4/4 3/1/3 7/2/7 6/3/6 
s 32
f 3/4/3 2/1/2 8/2/8 7/3/7 
s 64
f 2/4/2 1/1/1 5/2/5 8/3/8 
# 6 polygons

#
# object sphere
#

v  -24.7938 10.6114 -1.3433
v  -20.9660 9.8970 -1.3433
v  -23.6109 9.8970 -4.9838
v  -17.6536 7.8498 -1.3433
v  -19.7056 8.5467 -5.0402
v  -22.5874 7.8498 -8.1341
v  -15.3027 4.7456 -1.3433
v  -16.4707 5.4840 -4.9838
v  -18.7595 5.4840 -8.1341
v  -21.8609 4.7456 -10.3700
v  -27.8906 9.8970 -3.5933
v  -26.7373 8.5467 -7.3249
v  -30.5704 7.8498 -5.5403
v  -25.6842 5.4840 -10.3841
v  -29.3875 5.4840 -9.1808
v  -32.4723 4.7456 -6.9221
v  -27.8906 9.8970 0.9066
v  -31.0832 8.5467 -1.3433
v  -30.5704 7.8498 2.8536
v  -33.6672 5.4840 -3.2903
v  -33.6672 5.4840 0.6036
v  -32.4723 4.7456 4.2354
v  -23.6109 9.8970 2.2972
v  -26.7373 8.5467 4.6382
v  -22.5874 7.8498 5.4474
v  -29.3875 5.4840 6.4941
v  -25.6841 5.4840 7.6974
v  -21.8609 4.7456 7.6833
v  -19.7056 8.5467 2.3535
v  -18.7595 5.4840 5.4474
v  -16.4707 5.4840 2.2972
v  -14.5568 1.6562 0.9066
v  -14.5568 1.6562 -3.5933
v  -15.1894 -1.6562 2.8536
v  -14.3367 -1.8032 -1.3433
v  -15.1894 -1.6562 -5.5403
v  -17.1153 -4.7456 4.2354
v  -15.9204 -5.4840 0.6036
v  -15.9204 -5.4840 -3.2903
v  -17.1153 -4.7456 -6.9221
v  -19.4906 1.6562 -10.3841
v  -23.7702 1.6562 -11.7746
v  -17.8344 -1.6562 -9.1808
v  -21.5624 -1.8032 -11.2886
v  -25.8174 -1.6562 -11.7746
v  -20.2001 -5.4840 -9.1808
v  -23.9035 -5.4840 -10.3841
v  -27.7267 -4.7456 -10.3700
v  -31.7533 1.6562 -9.1808
v  -34.3982 1.6562 -5.5403
v  -30.0971 -1.6562 -10.3841
v  -33.2538 -1.8032 -7.4899
v  -35.0308 -1.6562 -3.5933
v  -30.8281 -5.4840 -8.1341
v  -33.1169 -5.4840 -4.9838
v  -34.2850 -4.7456 -1.3433
v  -34.3982 1.6562 2.8536
v  -31.7533 1.6562 6.4941
v  -35.0308 -1.6562 0.9066
v  -33.2538 -1.8032 4.8032
v  -30.0971 -1.6562 7.6974
v  -33.1169 -5.4840 2.2972
v  -30.8281 -5.4840 5.4474
v  -27.7267 -4.7456 7.6833
v  -23.7702 1.6562 9.0879
v  -19.4906 1.6562 7.6974
v  -25.8174 -1.6562 9.0879
v  -21.5624 -1.8032 8.6019
v  -17.8344 -1.6562 6.4941
v  -23.9035 -5.4840 7.6974
v  -20.2001 -5.4840 6.4941
v  -16.3339 1.8032 -7.4899
v  -28.0252 1.8032 -11.2886
v  -35.2509 1.8032 -1.3433
v  -28.0252 1.8032 8.6019
v  -16.3339 1.8032 4.8032
v  -24.7938 -10.6114 -1.3433
v  -25.9767 -9.8970 -4.9838
v  -21.6970 -9.8970 -3.5933
v  -27.0003 -7.8498 -8.1341
v  -22.8503 -8.5467 -7.3249
v  -19.0172 -7.8498 -5.5403
v  -28.6217 -9.8970 -1.3433
v  -31.9341 -7.8498 -1.3433
v  -29.8820 -8.5467 -5.0402
v  -25.9767 -9.8970 2.2972
v  -27.0003 -7.8498 5.4474
v  -29.8820 -8.5467 2.3535
v  -21.6970 -9.8970 0.9066
v  -19.0172 -7.8498 2.8536
v  -22.8503 -8.5467 4.6382
v  -18.5044 -8.5467 -1.3433
# 92 vertices

vn 0.0000 1.0000 -0.0000
vn 0.3585 0.9335 -0.0000
vn 0.1108 0.9335 -0.3410
vn 0.6742 0.7385 -0.0000
vn 0.4841 0.8012 -0.3517
vn 0.2083 0.7385 -0.6412
vn 0.8944 0.4472 -0.0000
vn 0.7833 0.5170 -0.3452
vn 0.5703 0.5170 -0.6383
vn 0.2764 0.4472 -0.8507
vn -0.2900 0.9335 -0.2107
vn -0.1849 0.8012 -0.5691
vn -0.5455 0.7385 -0.3963
vn -0.0862 0.5170 -0.8516
vn -0.4308 0.5170 -0.7396
vn -0.7236 0.4472 -0.5257
vn -0.2900 0.9335 0.2107
vn -0.5983 0.8012 0.0000
vn -0.5455 0.7385 0.3963
vn -0.8366 0.5170 -0.1812
vn -0.8366 0.5170 0.1812
vn -0.7236 0.4472 0.5257
vn 0.1108 0.9335 0.3410
vn -0.1849 0.8012 0.5691
vn 0.2083 0.7385 0.6412
vn -0.4308 0.5170 0.7396
vn -0.0862 0.5170 0.8516
vn 0.2764 0.4472 0.8507
vn 0.4841 0.8012 0.3517
vn 0.5703 0.5170 0.6383
vn 0.7833 0.5170 0.3452
vn 0.9639 0.1594 0.2132
vn 0.9639 0.1594 -0.2132
vn 0.9052 -0.1594 0.3941
vn 0.9842 -0.1768 -0.0000
vn 0.9052 -0.1594 -0.3941
vn 0.7236 -0.4472 0.5257
vn 0.8366 -0.5170 0.1812
vn 0.8366 -0.5170 -0.1812
vn 0.7236 -0.4472 -0.5257
vn 0.5007 0.1594 -0.8509
vn 0.0951 0.1594 -0.9826
vn 0.6545 -0.1594 -0.7391
vn 0.3041 -0.1768 -0.9361
vn -0.0951 -0.1594 -0.9826
vn 0.4308 -0.5170 -0.7396
vn 0.0862 -0.5170 -0.8516
vn -0.2764 -0.4472 -0.8507
vn -0.6545 0.1594 -0.7391
vn -0.9052 0.1594 -0.3941
vn -0.5007 -0.1594 -0.8509
vn -0.7963 -0.1768 -0.5785
vn -0.9639 -0.1594 -0.2132
vn -0.5703 -0.5170 -0.6383
vn -0.7833 -0.5170 -0.3452
vn -0.8944 -0.4472 -0.0000
vn -0.9052 0.1594 0.3941
vn -0.6545 0.1594 0.7391
vn -0.9639 -0.1594 0.2132
vn -0.7963 -0.1768 0.5785
vn -0.5007 -0.1594 0.8509
vn -0.7833 -0.5170 0.3452
vn -0.5703 -0.5170 0.6383
vn -0.2764 -0.4472 0.8507
vn 0.0951 0.1594 0.9826
vn 0.5007 0.1594 0.8509
vn -0.0951 -0.1594 0.9826
vn 0.3041 -0.1768 0.9361
vn 0.6545 -0.1594 0.7391
vn 0.0862 -0.5170 0.8516
vn 0.4308 -0.5170 0.7396
vn 0.7963 0.1768 -0.5785
vn -0.3041 0.1768 -0.9361
vn -0.9842 0.1768 0.0000
vn -0.3041 0.1768 0.9361
vn 0.7963 0.1768 0.5785
vn -0.0000 -1.0000 0.0000
vn -0.1108 -0.9335 -0.3410
vn 0.2900 -0.9335 -0.2107
vn -0.2083 -0.7385 -0.6412
vn 0.1849 -0.8012 -0.5691
vn 0.5455 -0.7385 -0.3963
vn -0.3585 -0.9335 0.0000
vn -0.6742 -0.7385 0.0000
vn -0.4841 -0.8012 -0.3517
vn -0.1108 -0.9335 0.3410
vn -0.2083 -0.7385 0.6412
vn -0.4841 -0.8012 0.3517
vn 0.2900 -0.9335 0.2107
vn 0.5455 -0.7385 0.3963
vn 0.1849 -0.8012 0.5691
vn 0.5983 -0.8012 -0.0000
# 92 vertex normals

vt 0.6000 1.0000 10.6114
vt 0.5000 0.8825 10.6114
vt 0.7000 0.8825 10.6114
vt 0.5000 0.7651 10.6114
vt 0.6000 0.7981 10.6114
vt 0.7000 0.7651 10.6114
vt 0.5000 0.6476 10.6114
vt 0.5656 0.6729 10.6114
vt 0.6344 0.6729 10.6114
vt 0.7000 0.6476 10.6114
vt 0.8000 1.0000 10.6114
vt 0.9000 0.8825 10.6114
vt 0.8000 0.7981 10.6114
vt 0.9000 0.7651 10.6114
vt 0.7656 0.6729 10.6114
vt 0.8344 0.6729 10.6114
vt 0.9000 0.6476 10.6114
vt 0.0000 1.0000 10.6114
vt -0.1000 0.8825 10.6114
vt 0.1000 0.8825 10.6114
vt -0.1000 0.7651 10.6114
vt 0.0000 0.7981 10.6114
vt 0.1000 0.7651 10.6114
vt 0.9656 0.6729 10.6114
vt -0.0344 0.6729 10.6114
vt 0.0344 0.6729 10.6114
vt 0.1000 0.6476 10.6114
vt 0.2000 1.0000 10.6114
vt 0.3000 0.8825 10.6114
vt 0.2000 0.7981 10.6114
vt 0.3000 0.7651 10.6114
vt 0.1656 0.6729 10.6114
vt 0.2344 0.6729 10.6114
vt 0.3000 0.6476 10.6114
vt 0.4000 1.0000 10.6114
vt 0.4000 0.7981 10.6114
vt 0.3656 0.6729 10.6114
vt 0.4344 0.6729 10.6114
vt 0.4656 0.5499 10.6114
vt 0.5344 0.5499 10.6114
vt 0.4344 0.4501 10.6114
vt 0.5000 0.4456 10.6114
vt 0.5656 0.4501 10.6114
vt 0.4000 0.3524 10.6114
vt 0.4656 0.3271 10.6114
vt 0.5344 0.3271 10.6114
vt 0.6000 0.3524 10.6114
vt 0.6656 0.5499 10.6114
vt 0.7344 0.5499 10.6114
vt 0.6344 0.4501 10.6114
vt 0.7000 0.4456 10.6114
vt 0.7656 0.4501 10.6114
vt 0.6656 0.3271 10.6114
vt 0.7344 0.3271 10.6114
vt 0.8000 0.3524 10.6114
vt 0.8656 0.5499 10.6114
vt 0.9344 0.5499 10.6114
vt 0.8344 0.4501 10.6114
vt 0.9000 0.4456 10.6114
vt 0.9656 0.4501 10.6114
vt 0.8656 0.3271 10.6114
vt 0.9344 0.3271 10.6114
vt -0.0344 0.4501 10.6114
vt -0.0656 0.3271 10.6114
vt 0.0000 0.3524 10.6114
vt 0.0656 0.5499 10.6114
vt 0.1344 0.5499 10.6114
vt 0.0344 0.4501 10.6114
vt 0.1000 0.4456 10.6114
vt 0.1656 0.4501 10.6114
vt 0.0656 0.3271 10.6114
vt 0.1344 0.3271 10.6114
vt 0.2000 0.3524 10.6114
vt 0.2656 0.5499 10.6114
vt 0.3344 0.5499 10.6114
vt 0.2344 0.4501 10.6114
vt 0.3000 0.4456 10.6114
vt 0.3656 0.4501 10.6114
vt 0.2656 0.3271 10.6114
vt 0.3344 0.3271 10.6114
vt 0.6000 0.5544 10.6114
vt 0.8000 0.5544 10.6114
vt 0.0000 0.5544 10.6114
vt -0.0656 0.5499 10.6114
vt 0.2000 0.5544 10.6114
vt 0.4000 0.5544 10.6114
vt 0.7000 0.0000 10.6114
vt 0.8000 0.1175 10.6114
vt 0.6000 0.1175 10.6114
vt 0.8000 0.2349 10.6114
vt 0.7000 0.2019 10.6114
vt 0.6000 0.2349 10.6114
vt -0.1000 0.0000 10.6114
vt 0.0000 0.1175 10.6114
vt -0.2000 0.1175 10.6114
vt 0.0000 0.2349 10.6114
vt -0.1000 0.2019 10.6114
vt 0.9000 0.2019 10.6114
vt 0.1000 0.0000 10.6114
vt 0.2000 0.1175 10.6114
vt 0.2000 0.2349 10.6114
vt 0.1000 0.2019 10.6114
vt 0.3000 0.0000 10.6114
vt 0.4000 0.1175 10.6114
vt 0.4000 0.2349 10.6114
vt 0.3000 0.2019 10.6114
vt 0.5000 0.0000 10.6114
vt 0.5000 0.2019 10.6114
# 108 texture coords

o sphere
g sphere
s 1
f 9/5/9 10/6/10 11/7/11 
f 10/6/10 12/8/12 13/9/13 
f 10/6/10 13/9/13 11/7/11 
f 11/7/11 13/9/13 14/10/14 
f 12/8/12 15/11/15 16/12/16 
f 12/8/12 16/12/16 13/9/13 
f 13/9/13 16/12/16 17/13/17 
f 13/9/13 17/13/17 14/10/14 
f 14/10/14 17/13/17 18/14/18 
f 9/15/9 11/7/11 19/16/19 
f 11/7/11 14/10/14 20/17/20 
f 11/7/11 20/17/20 19/16/19 
f 19/16/19 20/17/20 21/18/21 
f 14/10/14 18/14/18 22/19/22 
f 14/10/14 22/19/22 20/17/20 
f 20/17/20 22/19/22 23/20/23 
f 20/17/20 23/20/23 21/18/21 
f 21/18/21 23/20/23 24/21/24 
f 9/22/9 19/23/19 25/24/25 
f 19/23/19 21/25/21 26/26/26 
f 19/23/19 26/26/26 25/24/25 
f 25/24/25 26/26/26 27/27/27 
f 21/18/21 24/21/24 28/28/28 
f 21/25/21 28/29/28 26/26/26 
f 26/26/26 28/29/28 29/30/29 
f 26/26/26 29/30/29 27/27/27 
f 27/27/27 29/30/29 30/31/30 
f 9/32/9 25/24/25 31/33/31 
f 25/24/25 27/27/27 32/34/32 
f 25/24/25 32/34/32 31/33/31 
f 31/33/31 32/34/32 33/35/33 
f 27/27/27 30/31/30 34/36/34 
f 27/27/27 34/36/34 32/34/32 
f 32/34/32 34/36/34 35/37/35 
f 32/34/32 35/37/35 33/35/33 
f 33/35/33 35/37/35 36/38/36 
f 9/39/9 31/33/31 10/6/10 
f 31/33/31 33/35/33 37/40/37 
f 31/33/31 37/40/37 10/6/10 
f 10/6/10 37/40/37 12/8/12 
f 33/35/33 36/38/36 38/41/38 
f 33/35/33 38/41/38 37/40/37 
f 37/40/37 38/41/38 39/42/39 
f 37/40/37 39/42/39 12/8/12 
f 12/8/12 39/42/39 15/11/15 
f 15/11/15 40/43/40 41/44/41 
f 40/43/40 42/45/42 43/46/43 
f 40/43/40 43/46/43 41/44/41 
f 41/44/41 43/46/43 44/47/44 
f 42/45/42 45/48/45 46/49/46 
f 42/45/42 46/49/46 43/46/43 
f 43/46/43 46/49/46 47/50/47 
f 43/46/43 47/50/47 44/47/44 
f 44/47/44 47/50/47 48/51/48 
f 18/14/18 49/52/49 50/53/50 
f 49/52/49 51/54/51 52/55/52 
f 49/52/49 52/55/52 50/53/50 
f 50/53/50 52/55/52 53/56/53 
f 51/54/51 48/51/48 54/57/54 
f 51/54/51 54/57/54 52/55/52 
f 52/55/52 54/57/54 55/58/55 
f 52/55/52 55/58/55 53/56/53 
f 53/56/53 55/58/55 56/59/56 
f 24/21/24 57/60/57 58/61/58 
f 57/60/57 59/62/59 60/63/60 
f 57/60/57 60/63/60 58/61/58 
f 58/61/58 60/63/60 61/64/61 
f 59/62/59 56/59/56 62/65/62 
f 59/62/59 62/65/62 60/63/60 
f 60/63/60 62/65/62 63/66/63 
f 60/63/60 63/66/63 61/64/61 
f 61/67/61 63/68/63 64/69/64 
f 30/31/30 65/70/65 66/71/66 
f 65/70/65 67/72/67 68/73/68 
f 65/70/65 68/73/68 66/71/66 
f 66/71/66 68/73/68 69/74/69 
f 67/72/67 64/69/64 70/75/70 
f 67/72/67 70/75/70 68/73/68 
f 68/73/68 70/75/70 71/76/71 
f 68/73/68 71/76/71 69/74/69 
f 69/74/69 71/76/71 72/77/72 
f 36/38/36 73/78/73 74/79/74 
f 73/78/73 75/80/75 76/81/76 
f 73/78/73 76/81/76 74/79/74 
f 74/79/74 76/81/76 77/82/77 
f 75/80/75 72/77/72 78/83/78 
f 75/80/75 78/83/78 76/81/76 
f 76/81/76 78/83/78 79/84/79 
f 76/81/76 79/84/79 77/82/77 
f 77/82/77 79/84/79 45/48/45 
f 48/51/48 51/54/51 44/47/44 
f 51/54/51 49/52/49 80/85/80 
f 51/54/51 80/85/80 44/47/44 
f 44/47/44 80/85/80 41/44/41 
f 49/52/49 18/14/18 17/13/17 
f 49/52/49 17/13/17 80/85/80 
f 80/85/80 17/13/17 16/12/16 
f 80/85/80 16/12/16 41/44/41 
f 41/44/41 16/12/16 15/11/15 
f 56/59/56 59/62/59 53/56/53 
f 59/62/59 57/60/57 81/86/81 
f 59/62/59 81/86/81 53/56/53 
f 53/56/53 81/86/81 50/53/50 
f 57/60/57 24/21/24 23/20/23 
f 57/60/57 23/20/23 81/86/81 
f 81/86/81 23/20/23 22/19/22 
f 81/86/81 22/19/22 50/53/50 
f 50/53/50 22/19/22 18/14/18 
f 64/69/64 67/72/67 61/67/61 
f 67/72/67 65/70/65 82/87/82 
f 67/72/67 82/87/82 61/67/61 
f 61/67/61 82/87/82 58/88/58 
f 65/70/65 30/31/30 29/30/29 
f 65/70/65 29/30/29 82/87/82 
f 82/87/82 29/30/29 28/29/28 
f 82/87/82 28/29/28 58/88/58 
f 58/61/58 28/28/28 24/21/24 
f 72/77/72 75/80/75 69/74/69 
f 75/80/75 73/78/73 83/89/83 
f 75/80/75 83/89/83 69/74/69 
f 69/74/69 83/89/83 66/71/66 
f 73/78/73 36/38/36 35/37/35 
f 73/78/73 35/37/35 83/89/83 
f 83/89/83 35/37/35 34/36/34 
f 83/89/83 34/36/34 66/71/66 
f 66/71/66 34/36/34 30/31/30 
f 45/48/45 42/45/42 77/82/77 
f 42/45/42 40/43/40 84/90/84 
f 42/45/42 84/90/84 77/82/77 
f 77/82/77 84/90/84 74/79/74 
f 40/43/40 15/11/15 39/42/39 
f 40/43/40 39/42/39 84/90/84 
f 84/90/84 39/42/39 38/41/38 
f 84/90/84 38/41/38 74/79/74 
f 74/79/74 38/41/38 36/38/36 
f 85/91/85 86/92/86 87/93/87 
f 86/92/86 88/94/88 89/95/89 
f 86/92/86 89/95/89 87/93/87 
f 87/93/87 89/95/89 90/96/90 
f 88/94/88 56/59/56 55/58/55 
f 88/94/88 55/58/55 89/95/89 
f 89/95/89 55/58/55 54/57/54 
f 89/95/89 54/57/54 90/96/90 
f 90/96/90 54/57/54 48/51/48 
f 85/97/85 91/98/91 86/99/86 
f 91/98/91 92/100/92 93/101/93 
f 91/98/91 93/101/93 86/99/86 
f 86/92/86 93/102/93 88/94/88 
f 92/100/92 64/69/64 63/68/63 
f 92/100/92 63/68/63 93/101/93 
f 93/102/93 63/66/63 62/65/62 
f 93/102/93 62/65/62 88/94/88 
f 88/94/88 62/65/62 56/59/56 
f 85/103/85 94/104/94 91/98/91 
f 94/104/94 95/105/95 96/106/96 
f 94/104/94 96/106/96 91/98/91 
f 91/98/91 96/106/96 92/100/92 
f 95/105/95 72/77/72 71/76/71 
f 95/105/95 71/76/71 96/106/96 
f 96/106/96 71/76/71 70/75/70 
f 96/106/96 70/75/70 92/100/92 
f 92/100/92 70/75/70 64/69/64 
f 85/107/85 97/108/97 94/104/94 
f 97/108/97 98/109/98 99/110/99 
f 97/108/97 99/110/99 94/104/94 
f 94/104/94 99/110/99 95/105/95 
f 98/109/98 45/48/45 79/84/79 
f 98/109/98 79/84/79 99/110/99 
f 99/110/99 79/84/79 78/83/78 
f 99/110/99 78/83/78 95/105/95 
f 95/105/95 78/83/78 72/77/72 
f 85/111/85 87/93/87 97/108/97 
f 87/93/87 90/96/90 100/112/100 
f 87/93/87 100/112/100 97/108/97 
f 97/108/97 100/112/100 98/109/98 
f 90/96/90 48/51/48 47/50/47 
f 90/96/90 47/50/47 100/112/100 
f 100/112/100 47/50/47 46/49/46 
f 100/112/100 46/49/46 98/109/98 
f 98/109/98 46/49/46 45/48/45 
# 0 polygons - 180 triangles

#
# object conus
#

v  -10.7759 -14.2603 21.5061
v  -0.9125 -14.2603 15.1673
v  0.4739 -14.2603 18.2029
v  0.9488 -14.2603 21.5061
v  -5.9053 -14.2603 10.8410
v  -3.0978 -14.2603 12.6452
v  -12.4445 -14.2603 9.9008
v  -9.1073 -14.2603 9.9008
v  -18.4539 -14.2603 12.6452
v  -15.6465 -14.2603 10.8410
v  -22.0256 -14.2603 18.2029
v  -20.6393 -14.2603 15.1673
v  -22.0256 -14.2603 24.8093
v  -22.5005 -14.2603 21.5061
v  -18.4539 -14.2603 30.3670
v  -20.6393 -14.2603 27.8449
v  -12.4445 -14.2603 33.1114
v  -15.6465 -14.2603 32.1712
v  -5.9053 -14.2603 32.1712
v  -9.1073 -14.2603 33.1114
v  -0.9125 -14.2603 27.8450
v  -3.0979 -14.2603 30.3670
v  0.4739 -14.2603 24.8093
v  -3.2760 -7.9203 19.3040
v  -2.9594 -7.9203 21.5061
v  -4.2003 -7.9203 17.2802
v  -5.6572 -7.9203 15.5988
v  -7.5288 -7.9203 14.3960
v  -9.6635 -7.9203 13.7692
v  -11.8883 -7.9203 13.7692
v  -14.0229 -7.9203 14.3960
v  -15.8946 -7.9203 15.5988
v  -17.3515 -7.9203 17.2802
v  -18.2757 -7.9203 19.3040
v  -18.5923 -7.9203 21.5061
v  -18.2757 -7.9203 23.7083
v  -17.3515 -7.9203 25.7320
v  -15.8946 -7.9203 27.4134
v  -14.0229 -7.9203 28.6162
v  -11.8883 -7.9203 29.2430
v  -9.6635 -7.9203 29.2430
v  -7.5288 -7.9203 28.6162
v  -5.6572 -7.9203 27.4134
v  -4.2003 -7.9203 25.7320
v  -3.2761 -7.9203 23.7083
v  -7.0260 -1.5804 20.4050
v  -6.8677 -1.5804 21.5061
v  -7.4881 -1.5804 19.3932
v  -8.2165 -1.5804 18.5525
v  -9.1523 -1.5804 17.9511
v  -10.2197 -1.5804 17.6377
v  -11.3321 -1.5804 17.6377
v  -12.3994 -1.5804 17.9511
v  -13.3352 -1.5804 18.5525
v  -14.0637 -1.5804 19.3932
v  -14.5258 -1.5804 20.4050
v  -14.6841 -1.5804 21.5061
v  -14.5258 -1.5804 22.6072
v  -14.0637 -1.5804 23.6190
v  -13.3352 -1.5804 24.4597
v  -12.3994 -1.5804 25.0611
v  -11.3321 -1.5804 25.3745
v  -10.2197 -1.5804 25.3745
v  -9.1523 -1.5804 25.0611
v  -8.2165 -1.5804 24.4597
v  -7.4881 -1.5804 23.6191
v  -7.0260 -1.5804 22.6072
v  -10.7759 4.7595 21.5061
# 68 vertices

vn 0.0000 -1.0000 -0.0000
vn 0.7484 -0.4566 -0.4810
vn 0.8536 -0.4566 -0.2506
vn 0.8897 -0.4566 0.0000
vn 0.3696 -0.4566 -0.8093
vn 0.5826 -0.4566 -0.6724
vn -0.1266 -0.4566 -0.8806
vn 0.1266 -0.4566 -0.8806
vn -0.5826 -0.4566 -0.6724
vn -0.3696 -0.4566 -0.8093
vn -0.8536 -0.4566 -0.2506
vn -0.7484 -0.4566 -0.4810
vn -0.8536 -0.4566 0.2506
vn -0.8897 -0.4566 -0.0000
vn -0.5826 -0.4566 0.6724
vn -0.7484 -0.4566 0.4810
vn -0.1266 -0.4566 0.8806
vn -0.3696 -0.4566 0.8093
vn 0.3696 -0.4566 0.8093
vn 0.1266 -0.4566 0.8806
vn 0.7484 -0.4566 0.4810
vn 0.5826 -0.4566 0.6724
vn 0.8536 -0.4566 0.2507
vn 0.8168 0.5248 -0.2398
vn 0.8513 0.5248 0.0000
vn 0.7161 0.5248 -0.4602
vn 0.5575 0.5248 -0.6433
vn 0.3536 0.5248 -0.7743
vn 0.1211 0.5248 -0.8426
vn -0.1211 0.5248 -0.8426
vn -0.3536 0.5248 -0.7743
vn -0.5575 0.5248 -0.6433
vn -0.7161 0.5248 -0.4602
vn -0.8168 0.5248 -0.2398
vn -0.8513 0.5248 -0.0000
vn -0.8168 0.5248 0.2398
vn -0.7161 0.5248 0.4602
vn -0.5575 0.5248 0.6433
vn -0.3536 0.5248 0.7743
vn -0.1211 0.5248 0.8426
vn 0.1211 0.5248 0.8426
vn 0.3536 0.5248 0.7743
vn 0.5575 0.5248 0.6433
vn 0.7161 0.5248 0.4602
vn 0.8168 0.5248 0.2398
vn 1.0000 0.0000 -0.0000
# 46 vertex normals

vt 0.5000 0.0000 0.0000
vt 0.8409 0.0000 1.0000
vt 0.7955 0.0000 1.0000
vt 0.7500 0.0000 1.0000
vt 0.9318 0.0000 1.0000
vt 0.8864 0.0000 1.0000
vt 0.9841 0.0000 0.9190
vt 0.9773 0.0000 1.0000
vt 0.1136 0.0000 1.0000
vt 0.0682 0.0000 1.0000
vt 0.0227 0.0000 1.0000
vt 0.2045 0.0000 1.0000
vt 0.1591 0.0000 1.0000
vt 0.2955 0.0000 1.0000
vt 0.2500 0.0000 1.0000
vt 0.3864 0.0000 1.0000
vt 0.3409 0.0000 1.0000
vt 0.4773 0.0000 1.0000
vt 0.4318 0.0000 1.0000
vt 0.5682 0.0000 1.0000
vt 0.5227 0.0000 1.0000
vt 0.6591 0.0000 1.0000
vt 0.6136 0.0000 1.0000
vt 0.7045 0.0000 1.0000
vt 0.7955 0.3333 0.6667
vt 0.7500 0.3333 0.6667
vt 0.8409 0.3333 0.6667
vt 0.8864 0.3333 0.6667
vt 0.9318 0.3333 0.6667
vt 0.9773 0.3333 0.6667
vt -0.0227 0.0000 1.0000
vt 0.0227 0.3333 0.6667
vt -0.0227 0.3333 0.6667
vt 0.0682 0.3333 0.6667
vt 0.1136 0.3333 0.6667
vt 0.1591 0.3333 0.6667
vt 0.2045 0.3333 0.6667
vt 0.2500 0.3333 0.6667
vt 0.2955 0.3333 0.6667
vt 0.3409 0.3333 0.6667
vt 0.3864 0.3333 0.6667
vt 0.4318 0.3333 0.6667
vt 0.4773 0.3333 0.6667
vt 0.5227 0.3333 0.6667
vt 0.5682 0.3333 0.6667
vt 0.6136 0.3333 0.6667
vt 0.6591 0.3333 0.6667
vt 0.7045 0.3333 0.6667
vt 0.7955 0.6667 0.3333
vt 0.7500 0.6667 0.3333
vt 0.8409 0.6667 0.3333
vt 0.8864 0.6667 0.3333
vt 0.9318 0.6667 0.3333
vt 0.9773 0.6667 0.3333
vt 0.0227 0.6667 0.3333
vt -0.0227 0.6667 0.3333
vt 0.0682 0.6667 0.3333
vt 0.1136 0.6667 0.3333
vt 0.1591 0.6667 0.3333
vt 0.2045 0.6667 0.3333
vt 0.2500 0.6667 0.3333
vt 0.2955 0.6667 0.3333
vt 0.3409 0.6667 0.3333
vt 0.3864 0.6667 0.3333
vt 0.4318 0.6667 0.3333
vt 0.4773 0.6667 0.3333
vt 0.5227 0.6667 0.3333
vt 0.5682 0.6667 0.3333
vt 0.6136 0.6667 0.3333
vt 0.6591 0.6667 0.3333
vt 0.7045 0.6667 0.3333
vt 0.5000 1.0000 0.0000
# 72 texture coords

o conus
g conus
s 1
f 101/113/101 102/114/102 103/115/103 104/116/104 
f 101/113/101 105/117/105 106/118/106 102/114/102 
f 101/113/101 107/119/107 108/120/108 105/117/105 
f 101/113/101 109/121/109 110/122/110 107/123/107 
f 101/113/101 111/124/111 112/125/112 109/121/109 
f 101/113/101 113/126/113 114/127/114 111/124/111 
f 101/113/101 115/128/115 116/129/116 113/126/113 
f 101/113/101 117/130/117 118/131/118 115/128/115 
f 101/113/101 119/132/119 120/133/120 117/130/117 
f 101/113/101 121/134/121 122/135/122 119/132/119 
f 101/113/101 104/116/104 123/136/123 121/134/121 
s 8
f 104/116/104 103/115/103 124/137/124 125/138/125 
f 103/115/103 102/114/102 126/139/126 124/137/124 
f 102/114/102 106/118/106 127/140/127 126/139/126 
f 106/118/106 105/117/105 128/141/128 127/140/127 
f 105/117/105 108/120/108 129/142/129 128/141/128 
f 108/143/108 107/123/107 130/144/130 129/145/129 
f 107/123/107 110/122/110 131/146/131 130/144/130 
f 110/122/110 109/121/109 132/147/132 131/146/131 
f 109/121/109 112/125/112 133/148/133 132/147/132 
f 112/125/112 111/124/111 134/149/134 133/148/133 
f 111/124/111 114/127/114 135/150/135 134/149/134 
f 114/127/114 113/126/113 136/151/136 135/150/135 
f 113/126/113 116/129/116 137/152/137 136/151/136 
f 116/129/116 115/128/115 138/153/138 137/152/137 
f 115/128/115 118/131/118 139/154/139 138/153/138 
f 118/131/118 117/130/117 140/155/140 139/154/139 
f 117/130/117 120/133/120 141/156/141 140/155/140 
f 120/133/120 119/132/119 142/157/142 141/156/141 
f 119/132/119 122/135/122 143/158/143 142/157/142 
f 122/135/122 121/134/121 144/159/144 143/158/143 
f 121/134/121 123/136/123 145/160/145 144/159/144 
f 123/136/123 104/116/104 125/138/125 145/160/145 
f 125/138/125 124/137/124 146/161/124 147/162/125 
f 124/137/124 126/139/126 148/163/126 146/161/124 
f 126/139/126 127/140/127 149/164/127 148/163/126 
f 127/140/127 128/141/128 150/165/128 149/164/127 
f 128/141/128 129/142/129 151/166/129 150/165/128 
f 129/145/129 130/144/130 152/167/130 151/168/129 
f 130/144/130 131/146/131 153/169/131 152/167/130 
f 131/146/131 132/147/132 154/170/132 153/169/131 
f 132/147/132 133/148/133 155/171/133 154/170/132 
f 133/148/133 134/149/134 156/172/134 155/171/133 
f 134/149/134 135/150/135 157/173/135 156/172/134 
f 135/150/135 136/151/136 158/174/136 157/173/135 
f 136/151/136 137/152/137 159/175/137 158/174/136 
f 137/152/137 138/153/138 160/176/138 159/175/137 
f 138/153/138 139/154/139 161/177/139 160/176/138 
f 139/154/139 140/155/140 162/178/140 161/177/139 
f 140/155/140 141/156/141 163/179/141 162/178/140 
f 141/156/141 142/157/142 164/180/142 163/179/141 
f 142/157/142 143/158/143 165/181/143 164/180/142 
f 143/158/143 144/159/144 166/182/144 165/181/143 
f 144/159/144 145/160/145 167/183/145 166/182/144 
f 145/160/145 125/138/125 147/162/125 167/183/145 
f 147/162/125 146/161/124 168/184/146 168/184/146 
f 146/161/124 148/163/126 168/184/146 168/184/146 
f 148/163/126 149/164/127 168/184/146 168/184/146 
f 149/164/127 150/165/128 168/184/146 168/184/146 
f 150/165/128 151/166/129 168/184/146 168/184/146 
f 151/168/129 152/167/130 168/184/146 168/184/146 
f 152/167/130 153/169/131 168/184/146 168/184/146 
f 153/169/131 154/170/132 168/184/146 168/184/146 
f 154/170/132 155/171/133 168/184/146 168/184/146 
f 155/171/133 156/172/134 168/184/146 168/184/146 
f 156/172/134 157/173/135 168/184/146 168/184/146 
f 157/173/135 158/174/136 168/184/146 168/184/146 
f 158/174/136 159/175/137 168/184/146 168/184/146 
f 159/175/137 160/176/138 168/184/146 168/184/146 
f 160/176/138 161/177/139 168/184/146 168/184/146 
f 161/177/139 162/178/140 168/184/146 168/184/146 
f 162/178/140 163/179/141 168/184/146 168/184/146 
f 163/179/141 164/180/142 168/184/146 168/184/146 
f 164/180/142 165/181/143 168/184/146 168/184/146 
f 165/181/143 166/182/144 168/184/146 168/184/146 
f 166/182/144 167/183/145 168/184/146 168/184/146 
f 167/183/145 147/162/125 168/184/146 168/184/146 
s 1
f 168/184/146 168/184/146 168/184/146 168/184/146 
f 168/184/146 168/184/146 168/184/146 168/184/146 
f 168/184/146 168/184/146 168/184/146 168/184/146 
f 168/184/146 168/184/146 168/184/146 168/184/146 
f 168/184/146 168/184/146 168/184/146 168/184/146 
f 168/184/146 168/184/146 168/184/146 168/184/146 
f 168/184/146 168/184/146 168/184/146 168/184/146 
f 168/184/146 168/184/146 168/184/146 168/184/146 
f 168/184/146 168/184/146 168/184/146 168/184/146 
f 168/184/146 168/184/146 168/184/146 168/184/146 
f 168/184/146 168/184/146 168/184/146 168/184/146 
# 88 polygons

