# 3ds Max Wavefront OBJ Exporter v0.99 - (c)2007 guruware
# File Created: 24.12.2023 13:12:20

#
# object Plane001
#

v  -76.8802 0.0000 -72.2850
v  46.8384 0.0000 -19.6865
v  67.6504 0.0000 -72.5834
v  -25.9204 0.0000 47.5657
v  67.6504 0.0000 -18.9246
v  -76.8802 0.0000 82.0301
v  -49.8087 0.0000 82.0301
v  -64.9368 0.0000 73.9079
v  67.6504 0.0000 82.0301
v  -76.8802 0.0000 15.8983
v  -76.8802 0.0000 33.2245
v  -72.6130 0.0000 26.9559
v  -70.9392 0.0000 37.1939
v  -65.5819 0.0000 30.0594
v  -68.5605 0.0000 21.0684
# 15 vertices

vn 0.0000 1.0000 -0.0000
# 1 vertex normals

vt 0.0000 1.0000 0.0000
vt 0.5107 0.4893 0.0000
vt 1.0000 1.0000 0.0000
vt 0.2942 0.2819 0.0000
vt 1.0000 0.5036 0.0000
vt 0.0000 0.0000 0.0000
vt 0.5000 0.0000 0.0000
vt 0.2553 0.2447 0.0000
vt 1.0000 0.0000 0.0000
vt 0.0000 0.4277 0.0000
vt 0.0000 0.2139 0.0000
vt 0.1374 0.3455 0.0000
vt 0.1631 0.3235 0.0000
vt 0.1610 0.3359 0.0000
vt 0.0480 0.4039 0.0000
# 15 texture coords

o Plane001
g Plane001
s 1
f 1/1/1 2/2/1 3/3/1 
f 1/1/1 4/4/1 2/2/1 
f 2/2/1 5/5/1 3/3/1 
f 6/6/1 7/7/1 8/8/1 
f 7/7/1 4/4/1 8/8/1 
f 7/7/1 9/9/1 4/4/1 
f 10/10/1 11/11/1 12/12/1 
f 11/11/1 13/13/1 12/12/1 
f 12/12/1 13/13/1 14/14/1 
f 11/11/1 6/6/1 8/8/1 
f 10/10/1 12/12/1 15/15/1 
f 2/2/1 9/9/1 5/5/1 
f 1/1/1 15/15/1 4/4/1 
f 9/9/1 2/2/1 4/4/1 
f 13/13/1 8/8/1 4/4/1 
f 12/12/1 14/14/1 15/15/1 
f 11/11/1 8/8/1 13/13/1 
f 1/1/1 10/10/1 15/15/1 
f 13/13/1 4/4/1 14/14/1 
f 14/14/1 4/4/1 15/15/1 
# 0 polygons - 20 triangles

