# 3ds Max Wavefront OBJ Exporter v0.99 - (c)2007 guruware
# File Created: 23.06.2024 16:32:42

#
# object conus
#

v  0.4739 -14.2603 18.2029
v  0.9488 -14.2603 21.5061
v  -10.7759 -14.2603 21.5061
v  -0.9125 -14.2603 15.1673
v  -3.0978 -14.2603 12.6452
v  -5.9053 -14.2603 10.8410
v  -9.1073 -14.2603 9.9008
v  -12.4445 -14.2603 9.9008
v  -18.4539 -14.2603 12.6452
v  -15.6465 -14.2603 10.8410
v  -22.0256 -14.2603 18.2029
v  -20.6393 -14.2603 15.1673
v  -22.0256 -14.2603 24.8093
v  -22.5005 -14.2603 21.5061
v  -18.4539 -14.2603 30.3670
v  -20.6393 -14.2603 27.8449
v  -12.4445 -14.2603 33.1114
v  -15.6465 -14.2603 32.1712
v  -5.9053 -14.2603 32.1712
v  -9.1073 -14.2603 33.1114
v  -0.9125 -14.2603 27.8450
v  -3.0979 -14.2603 30.3670
v  0.4739 -14.2603 24.8093
v  -3.2760 -7.9203 19.3040
v  -2.9594 -7.9203 21.5061
v  -4.2003 -7.9203 17.2802
v  -5.6572 -7.9203 15.5988
v  -7.5288 -7.9203 14.3960
v  -9.6635 -7.9203 13.7692
v  -11.8883 -7.9203 13.7692
v  -14.0229 -7.9203 14.3960
v  -15.8946 -7.9203 15.5988
v  -17.3515 -7.9203 17.2802
v  -18.2757 -7.9203 19.3040
v  -18.5923 -7.9203 21.5061
v  -18.2757 -7.9203 23.7083
v  -17.3515 -7.9203 25.7320
v  -15.8946 -7.9203 27.4134
v  -14.0229 -7.9203 28.6162
v  -11.8883 -7.9203 29.2430
v  -9.6635 -7.9203 29.2430
v  -7.5288 -7.9203 28.6162
v  -5.6572 -7.9203 27.4134
v  -4.2003 -7.9203 25.7320
v  -3.2761 -7.9203 23.7083
v  -7.0260 -1.5804 20.4050
v  -6.8677 -1.5804 21.5061
v  -7.4881 -1.5804 19.3932
v  -8.2165 -1.5804 18.5525
v  -9.1523 -1.5804 17.9511
v  -10.2197 -1.5804 17.6377
v  -11.3321 -1.5804 17.6377
v  -12.3994 -1.5804 17.9511
v  -13.3352 -1.5804 18.5525
v  -14.0637 -1.5804 19.3932
v  -14.5258 -1.5804 20.4050
v  -14.6841 -1.5804 21.5061
v  -14.5258 -1.5804 22.6072
v  -14.0637 -1.5804 23.6190
v  -13.3352 -1.5804 24.4597
v  -12.3994 -1.5804 25.0611
v  -11.3321 -1.5804 25.3745
v  -10.2197 -1.5804 25.3745
v  -9.1523 -1.5804 25.0611
v  -8.2165 -1.5804 24.4597
v  -7.4881 -1.5804 23.6191
v  -7.0260 -1.5804 22.6072
v  -10.7759 4.7595 21.5061
v  4.8775 0.0000 -13.3307
v  12.8729 0.0000 3.2795
v  -3.7373 0.0000 11.2750
v  -11.7327 0.0000 -5.3353
v  4.8775 14.6592 -13.3307
v  -11.7327 14.6592 -5.3353
v  -3.7373 14.6592 11.2750
v  12.8729 14.6592 3.2795
v  -24.7938 10.6114 -1.3433
v  -20.9660 9.8970 -1.3433
v  -23.6109 9.8970 -4.9838
v  -17.6536 7.8498 -1.3433
v  -19.7056 8.5467 -5.0402
v  -22.5874 7.8498 -8.1341
v  -15.3027 4.7456 -1.3433
v  -16.4707 5.4840 -4.9838
v  -18.7595 5.4840 -8.1341
v  -21.8609 4.7456 -10.3700
v  -27.8906 9.8970 -3.5933
v  -26.7373 8.5467 -7.3249
v  -30.5704 7.8498 -5.5403
v  -25.6842 5.4840 -10.3841
v  -29.3875 5.4840 -9.1808
v  -32.4723 4.7456 -6.9221
v  -27.8906 9.8970 0.9066
v  -31.0832 8.5467 -1.3433
v  -30.5704 7.8498 2.8536
v  -33.6672 5.4840 -3.2903
v  -33.6672 5.4840 0.6036
v  -32.4723 4.7456 4.2354
v  -23.6109 9.8970 2.2972
v  -26.7373 8.5467 4.6382
v  -22.5874 7.8498 5.4474
v  -29.3875 5.4840 6.4941
v  -25.6841 5.4840 7.6974
v  -21.8609 4.7456 7.6833
v  -19.7056 8.5467 2.3535
v  -18.7595 5.4840 5.4474
v  -16.4707 5.4840 2.2972
v  -14.5568 1.6562 0.9066
v  -14.5568 1.6562 -3.5933
v  -15.1894 -1.6562 2.8536
v  -14.3367 -1.8032 -1.3433
v  -15.1894 -1.6562 -5.5403
v  -17.1153 -4.7456 4.2354
v  -15.9204 -5.4840 0.6036
v  -15.9204 -5.4840 -3.2903
v  -17.1153 -4.7456 -6.9221
v  -19.4906 1.6562 -10.3841
v  -23.7702 1.6562 -11.7746
v  -17.8344 -1.6562 -9.1808
v  -21.5624 -1.8032 -11.2886
v  -25.8174 -1.6562 -11.7746
v  -20.2001 -5.4840 -9.1808
v  -23.9035 -5.4840 -10.3841
v  -27.7267 -4.7456 -10.3700
v  -31.7533 1.6562 -9.1808
v  -34.3982 1.6562 -5.5403
v  -30.0971 -1.6562 -10.3841
v  -33.2538 -1.8032 -7.4899
v  -35.0308 -1.6562 -3.5933
v  -30.8281 -5.4840 -8.1341
v  -33.1169 -5.4840 -4.9838
v  -34.2850 -4.7456 -1.3433
v  -34.3982 1.6562 2.8536
v  -31.7533 1.6562 6.4941
v  -35.0308 -1.6562 0.9066
v  -33.2538 -1.8032 4.8032
v  -30.0971 -1.6562 7.6974
v  -33.1169 -5.4840 2.2972
v  -30.8281 -5.4840 5.4474
v  -27.7267 -4.7456 7.6833
v  -23.7702 1.6562 9.0879
v  -19.4906 1.6562 7.6974
v  -25.8174 -1.6562 9.0879
v  -21.5624 -1.8032 8.6019
v  -17.8344 -1.6562 6.4941
v  -23.9035 -5.4840 7.6974
v  -20.2001 -5.4840 6.4941
v  -16.3339 1.8032 -7.4899
v  -28.0252 1.8032 -11.2886
v  -35.2509 1.8032 -1.3433
v  -28.0252 1.8032 8.6019
v  -16.3339 1.8032 4.8032
v  -24.7938 -10.6114 -1.3433
v  -25.9767 -9.8970 -4.9838
v  -21.6970 -9.8970 -3.5933
v  -27.0003 -7.8498 -8.1341
v  -22.8503 -8.5467 -7.3249
v  -19.0172 -7.8498 -5.5403
v  -28.6217 -9.8970 -1.3433
v  -31.9341 -7.8498 -1.3433
v  -29.8820 -8.5467 -5.0402
v  -25.9767 -9.8970 2.2972
v  -27.0003 -7.8498 5.4474
v  -29.8820 -8.5467 2.3535
v  -21.6970 -9.8970 0.9066
v  -19.0172 -7.8498 2.8536
v  -22.8503 -8.5467 4.6382
v  -18.5044 -8.5467 -1.3433
# 168 vertices

vn 0.8536 -0.4566 -0.2507
vn 0.8897 -0.4566 -0.0000
vn 0.0000 -1.0000 -0.0000
vn 0.7484 -0.4566 -0.4810
vn 0.5826 -0.4566 -0.6724
vn 0.3696 -0.4566 -0.8093
vn 0.1266 -0.4566 -0.8806
vn -0.1266 -0.4566 -0.8806
vn -0.5826 -0.4566 -0.6724
vn -0.3696 -0.4566 -0.8093
vn -0.8536 -0.4566 -0.2506
vn -0.7484 -0.4566 -0.4810
vn -0.8536 -0.4566 0.2506
vn -0.8897 -0.4566 -0.0000
vn -0.5826 -0.4566 0.6724
vn -0.7484 -0.4566 0.4810
vn -0.1266 -0.4566 0.8806
vn -0.3696 -0.4566 0.8093
vn 0.3696 -0.4566 0.8093
vn 0.1266 -0.4566 0.8806
vn 0.7484 -0.4566 0.4810
vn 0.5826 -0.4566 0.6724
vn 0.8536 -0.4566 0.2507
vn 0.8168 0.5248 -0.2398
vn 0.8513 0.5248 0.0000
vn 0.7161 0.5248 -0.4602
vn 0.5575 0.5248 -0.6433
vn 0.3536 0.5247 -0.7743
vn 0.1211 0.5248 -0.8426
vn -0.1212 0.5248 -0.8426
vn -0.3536 0.5248 -0.7743
vn -0.5574 0.5248 -0.6433
vn -0.7161 0.5248 -0.4602
vn -0.8168 0.5247 -0.2398
vn -0.8513 0.5247 -0.0000
vn -0.8168 0.5247 0.2398
vn -0.7161 0.5248 0.4602
vn -0.5574 0.5248 0.6433
vn -0.3536 0.5248 0.7743
vn -0.1212 0.5248 0.8426
vn 0.1211 0.5248 0.8426
vn 0.3536 0.5247 0.7743
vn 0.5575 0.5247 0.6433
vn 0.7161 0.5248 0.4602
vn 0.8168 0.5248 0.2398
vn 0.8513 0.5248 -0.0000
vn 0.3536 0.5248 -0.7743
vn -0.8168 0.5248 -0.2398
vn -0.8513 0.5248 -0.0000
vn -0.8168 0.5248 0.2398
vn 0.3536 0.5248 0.7743
vn 0.5574 0.5248 0.6433
vn -0.0000 1.0000 -0.0000
vn 0.2698 -0.5774 -0.7706
vn 0.7706 -0.5773 0.2698
vn -0.2698 -0.5774 0.7706
vn -0.7706 -0.5773 -0.2698
vn 0.2698 0.5774 -0.7706
vn -0.7706 0.5773 -0.2698
vn -0.2698 0.5774 0.7706
vn 0.7706 0.5773 0.2698
vn 0.0000 1.0000 0.0000
vn 0.3585 0.9335 0.0000
vn 0.1108 0.9335 -0.3410
vn 0.6742 0.7385 0.0000
vn 0.4841 0.8012 -0.3517
vn 0.2083 0.7385 -0.6412
vn 0.8944 0.4472 0.0000
vn 0.7833 0.5170 -0.3452
vn 0.5703 0.5170 -0.6383
vn 0.2764 0.4472 -0.8506
vn -0.2900 0.9335 -0.2107
vn -0.1849 0.8012 -0.5691
vn -0.5455 0.7385 -0.3963
vn -0.0862 0.5170 -0.8516
vn -0.4308 0.5170 -0.7396
vn -0.7236 0.4472 -0.5257
vn -0.2900 0.9335 0.2107
vn -0.5983 0.8012 0.0000
vn -0.5455 0.7385 0.3963
vn -0.8366 0.5170 -0.1812
vn -0.8366 0.5170 0.1812
vn -0.7236 0.4472 0.5257
vn 0.1108 0.9335 0.3410
vn -0.1849 0.8012 0.5691
vn 0.2083 0.7385 0.6412
vn -0.4308 0.5170 0.7396
vn -0.0862 0.5170 0.8516
vn 0.2764 0.4472 0.8506
vn 0.4841 0.8012 0.3517
vn 0.5703 0.5170 0.6383
vn 0.7833 0.5170 0.3452
vn 0.9639 0.1594 0.2132
vn 0.9639 0.1594 -0.2132
vn 0.9052 -0.1593 0.3941
vn 0.9842 -0.1768 0.0000
vn 0.9052 -0.1593 -0.3941
vn 0.7236 -0.4472 0.5257
vn 0.8366 -0.5170 0.1812
vn 0.8366 -0.5170 -0.1812
vn 0.7236 -0.4472 -0.5257
vn 0.5007 0.1594 -0.8509
vn 0.0951 0.1593 -0.9826
vn 0.6545 -0.1594 -0.7391
vn 0.3041 -0.1768 -0.9361
vn -0.0951 -0.1593 -0.9826
vn 0.4308 -0.5170 -0.7396
vn 0.0862 -0.5170 -0.8516
vn -0.2764 -0.4472 -0.8506
vn -0.6545 0.1594 -0.7391
vn -0.9052 0.1594 -0.3941
vn -0.5006 -0.1594 -0.8509
vn -0.7963 -0.1769 -0.5785
vn -0.9639 -0.1594 -0.2132
vn -0.5703 -0.5170 -0.6383
vn -0.7833 -0.5170 -0.3452
vn -0.8944 -0.4472 0.0000
vn -0.9052 0.1594 0.3941
vn -0.6545 0.1594 0.7391
vn -0.9639 -0.1593 0.2132
vn -0.7963 -0.1768 0.5785
vn -0.5006 -0.1594 0.8509
vn -0.7833 -0.5170 0.3452
vn -0.5703 -0.5170 0.6383
vn -0.2764 -0.4472 0.8506
vn 0.0951 0.1593 0.9826
vn 0.5007 0.1594 0.8509
vn -0.0951 -0.1593 0.9826
vn 0.3041 -0.1768 0.9361
vn 0.6545 -0.1594 0.7391
vn 0.0862 -0.5170 0.8516
vn 0.4308 -0.5170 0.7396
vn 0.7963 0.1768 -0.5785
vn -0.3041 0.1768 -0.9361
vn -0.9842 0.1768 0.0000
vn -0.3041 0.1768 0.9361
vn 0.7963 0.1768 0.5785
vn 0.0000 -1.0000 0.0000
vn -0.1108 -0.9335 -0.3410
vn 0.2900 -0.9335 -0.2107
vn -0.2084 -0.7385 -0.6412
vn 0.1849 -0.8012 -0.5691
vn 0.5455 -0.7385 -0.3963
vn -0.3585 -0.9335 0.0000
vn -0.6742 -0.7385 0.0000
vn -0.4841 -0.8012 -0.3517
vn -0.1108 -0.9335 0.3410
vn -0.2084 -0.7385 0.6412
vn -0.4841 -0.8012 0.3517
vn 0.2900 -0.9335 0.2107
vn 0.5455 -0.7385 0.3963
vn 0.1849 -0.8012 0.5691
vn 0.5983 -0.8012 0.0000
# 153 vertex normals

vt 2.9630 0.8084 0.0000
vt 2.9715 0.7483 0.0000
vt 2.7602 0.7483 0.0000
vt 2.9380 0.8637 0.0000
vt 2.8986 0.9096 0.0000
vt 2.8480 0.9425 0.0000
vt 2.7903 0.9596 0.0000
vt 2.7302 0.9596 0.0000
vt 2.6218 0.9096 0.0000
vt 2.6724 0.9425 0.0000
vt 2.5575 0.8084 0.0000
vt 2.5825 0.8637 0.0000
vt 2.5575 0.6881 0.0000
vt 2.5489 0.7483 0.0000
vt 2.6218 0.5869 0.0000
vt 2.5825 0.6329 0.0000
vt 2.7302 0.5370 0.0000
vt 2.6724 0.5541 0.0000
vt 2.8480 0.5541 0.0000
vt 2.7903 0.5370 0.0000
vt 2.9380 0.6329 0.0000
vt 2.8986 0.5869 0.0000
vt 2.9630 0.6881 0.0000
vt 2.6010 0.0167 0.5000
vt 2.6010 0.2508 0.1667
vt 2.5691 0.2508 0.1667
vt 2.5691 0.0167 0.5000
vt 2.6329 0.0167 0.5000
vt 2.6329 0.2508 0.1667
vt 2.6649 0.0167 0.5000
vt 2.6649 0.2508 0.1667
vt 2.6967 0.0167 0.5000
vt 2.6967 0.2508 0.1667
vt 2.7287 0.0167 0.5000
vt 2.7287 0.2508 0.1667
vt 2.0265 0.2508 0.1667
vt 2.0265 0.0167 0.5000
vt 2.0584 0.0167 0.5000
vt 2.0584 0.2508 0.1667
vt 2.0904 0.2508 0.1667
vt 2.0904 0.0167 0.5000
vt 2.1222 0.0167 0.5000
vt 2.1222 0.2508 0.1667
vt 2.1542 0.2508 0.1667
vt 2.1542 0.0167 0.5000
vt 2.1861 0.0167 0.5000
vt 2.1861 0.2508 0.1667
vt 2.2180 0.0167 0.5000
vt 2.2180 0.2508 0.1667
vt 2.2500 0.0167 0.5000
vt 2.2500 0.2508 0.1667
vt 2.2818 0.0167 0.5000
vt 2.2818 0.2508 0.1667
vt 2.3138 0.0167 0.5000
vt 2.3138 0.2508 0.1667
vt 2.3457 0.0167 0.5000
vt 2.3457 0.2508 0.1667
vt 2.3776 0.0167 0.5000
vt 2.3776 0.2508 0.1667
vt 2.4095 0.0167 0.5000
vt 2.4095 0.2508 0.1667
vt 2.4414 0.0167 0.5000
vt 2.4414 0.2508 0.1667
vt 2.4733 0.0167 0.5000
vt 2.4733 0.2508 0.1667
vt 2.5053 0.0167 0.5000
vt 2.5030 0.2508 0.1667
vt 2.5371 0.0167 0.5000
vt 2.5349 0.2508 0.1667
vt 2.6010 0.4849 -0.1667
vt 2.5691 0.4849 -0.1667
vt 2.6329 0.4849 -0.1667
vt 2.6649 0.4849 -0.1667
vt 2.6967 0.4849 -0.1667
vt 2.7287 0.4849 -0.1667
vt 2.0584 0.4849 -0.1667
vt 2.0265 0.4849 -0.1667
vt 2.0904 0.4849 -0.1667
vt 2.1222 0.4849 -0.1667
vt 2.1542 0.4849 -0.1667
vt 2.1861 0.4849 -0.1667
vt 2.2180 0.4849 -0.1667
vt 2.2500 0.4849 -0.1667
vt 2.2818 0.4849 -0.1667
vt 2.3138 0.4849 -0.1667
vt 2.3457 0.4849 -0.1667
vt 2.3776 0.4849 -0.1667
vt 2.4095 0.4849 -0.1667
vt 2.4414 0.4849 -0.1667
vt 2.4733 0.4849 -0.1667
vt 2.5030 0.4849 -0.1667
vt 2.5349 0.4849 -0.1667
vt 2.3936 0.7189 -0.5000
vt 1.3420 0.6602 0.0000
vt 1.3394 0.9846 0.0000
vt 1.0150 0.9820 0.0000
vt 1.0176 0.6576 0.0000
vt 1.3507 0.3511 0.0000
vt 1.0064 0.3505 0.0000
vt 1.0070 0.0062 0.0000
vt 1.3512 0.0068 0.0000
vt 1.9820 0.6467 0.0000
vt 1.6721 0.6467 0.0000
vt 1.6721 0.3368 0.0000
vt 1.9820 0.3368 0.0000
vt 1.6609 0.6627 0.0000
vt 1.3511 0.6670 0.0000
vt 1.3468 0.3572 0.0000
vt 1.6566 0.3529 0.0000
vt 1.9820 0.9614 0.0000
vt 1.6721 0.9614 0.0000
vt 1.6721 0.6515 0.0000
vt 1.9820 0.6515 0.0000
vt 1.9820 0.3320 0.0000
vt 1.6721 0.3320 0.0000
vt 1.6721 0.0221 0.0000
vt 1.9820 0.0221 0.0000
vt 0.6722 0.8789 0.0000
vt 0.5906 0.7830 0.0000
vt 0.7538 0.7830 0.0000
vt 0.5906 0.6872 0.0000
vt 0.6722 0.7142 0.0000
vt 0.7538 0.6872 0.0000
vt 0.5906 0.5914 0.0000
vt 0.6441 0.6120 0.0000
vt 0.7003 0.6120 0.0000
vt 0.7538 0.5914 0.0000
vt 0.8354 0.8789 0.0000
vt 0.9170 0.7830 0.0000
vt 0.8354 0.7142 0.0000
vt 0.9170 0.6872 0.0000
vt 0.8073 0.6120 0.0000
vt 0.8634 0.6120 0.0000
vt 0.9170 0.5914 0.0000
vt 0.1827 0.8789 0.0000
vt 0.1011 0.7830 0.0000
vt 0.2643 0.7830 0.0000
vt 0.1011 0.6872 0.0000
vt 0.1827 0.7142 0.0000
vt 0.2643 0.6872 0.0000
vt 0.9705 0.6120 0.0000
vt 0.1546 0.6120 0.0000
vt 0.2107 0.6120 0.0000
vt 0.2643 0.5914 0.0000
vt 0.3459 0.8789 0.0000
vt 0.4274 0.7830 0.0000
vt 0.3459 0.7142 0.0000
vt 0.4274 0.6872 0.0000
vt 0.3178 0.6120 0.0000
vt 0.3739 0.6120 0.0000
vt 0.4274 0.5914 0.0000
vt 0.5090 0.8789 0.0000
vt 0.5090 0.7142 0.0000
vt 0.4810 0.6120 0.0000
vt 0.5371 0.6120 0.0000
vt 0.5625 0.5117 0.0000
vt 0.6187 0.5117 0.0000
vt 0.5371 0.4302 0.0000
vt 0.5906 0.4266 0.0000
vt 0.6441 0.4302 0.0000
vt 0.5090 0.3505 0.0000
vt 0.5625 0.3299 0.0000
vt 0.6187 0.3299 0.0000
vt 0.6722 0.3505 0.0000
vt 0.7257 0.5117 0.0000
vt 0.7819 0.5117 0.0000
vt 0.7003 0.4302 0.0000
vt 0.7538 0.4266 0.0000
vt 0.8073 0.4302 0.0000
vt 0.7257 0.3299 0.0000
vt 0.7819 0.3299 0.0000
vt 0.8354 0.3505 0.0000
vt 0.8889 0.5117 0.0000
vt 0.9450 0.5117 0.0000
vt 0.8634 0.4302 0.0000
vt 0.9170 0.4266 0.0000
vt 0.9705 0.4302 0.0000
vt 0.8889 0.3299 0.0000
vt 0.9450 0.3299 0.0000
vt 0.1546 0.4302 0.0000
vt 0.1292 0.3299 0.0000
vt 0.1827 0.3505 0.0000
vt 0.2362 0.5117 0.0000
vt 0.2923 0.5117 0.0000
vt 0.2107 0.4302 0.0000
vt 0.2643 0.4266 0.0000
vt 0.3178 0.4302 0.0000
vt 0.2362 0.3299 0.0000
vt 0.2923 0.3299 0.0000
vt 0.3459 0.3505 0.0000
vt 0.3994 0.5117 0.0000
vt 0.4555 0.5117 0.0000
vt 0.3739 0.4302 0.0000
vt 0.4274 0.4266 0.0000
vt 0.4810 0.4302 0.0000
vt 0.3994 0.3299 0.0000
vt 0.4555 0.3299 0.0000
vt 0.6722 0.5153 0.0000
vt 0.8354 0.5153 0.0000
vt 0.1827 0.5153 0.0000
vt 0.1292 0.5117 0.0000
vt 0.3459 0.5153 0.0000
vt 0.5090 0.5153 0.0000
vt 0.7538 0.0630 0.0000
vt 0.8354 0.1589 0.0000
vt 0.6722 0.1589 0.0000
vt 0.8354 0.2547 0.0000
vt 0.7538 0.2277 0.0000
vt 0.6722 0.2547 0.0000
vt 0.1011 0.0630 0.0000
vt 0.1827 0.1589 0.0000
vt 0.0195 0.1589 0.0000
vt 0.1827 0.2547 0.0000
vt 0.1011 0.2277 0.0000
vt 0.9170 0.2277 0.0000
vt 0.2643 0.0630 0.0000
vt 0.3459 0.1589 0.0000
vt 0.3459 0.2547 0.0000
vt 0.2643 0.2277 0.0000
vt 0.4274 0.0630 0.0000
vt 0.5090 0.1589 0.0000
vt 0.5090 0.2547 0.0000
vt 0.4274 0.2277 0.0000
vt 0.5906 0.0630 0.0000
vt 0.5906 0.2277 0.0000
# 225 texture coords

o conus
g conus
f 1/1/1 2/2/2 3/3/3 4/4/4 
f 5/5/5 4/4/4 3/3/3 6/6/6 
f 7/7/7 6/6/6 3/3/3 8/8/8 
f 9/9/9 10/10/10 8/8/8 3/3/3 
f 9/9/9 3/3/3 11/11/11 12/12/12 
f 13/13/13 14/14/14 11/11/11 3/3/3 
f 15/15/15 16/16/16 13/13/13 3/3/3 
f 17/17/17 18/18/18 15/15/15 3/3/3 
f 19/19/19 20/20/20 17/17/17 3/3/3 
f 19/19/19 3/3/3 21/21/21 22/22/22 
f 21/21/21 3/3/3 2/2/2 23/23/23 
f 1/24/1 24/25/24 25/26/25 2/27/2 
f 4/28/4 26/29/26 24/25/24 1/24/1 
f 26/29/26 4/28/4 5/30/5 27/31/27 
f 27/31/27 5/30/5 6/32/6 28/33/28 
f 28/33/28 6/32/6 7/34/7 29/35/29 
f 29/36/29 7/37/7 8/38/8 30/39/30 
f 31/40/31 30/39/30 8/38/8 10/41/10 
f 31/40/31 10/41/10 9/42/9 32/43/32 
f 33/44/33 32/43/32 9/42/9 12/45/12 
f 33/44/33 12/45/12 11/46/11 34/47/34 
f 34/47/34 11/46/11 14/48/14 35/49/35 
f 13/50/13 36/51/36 35/49/35 14/48/14 
f 13/50/13 16/52/16 37/53/37 36/51/36 
f 15/54/15 38/55/38 37/53/37 16/52/16 
f 38/55/38 15/54/15 18/56/18 39/57/39 
f 17/58/17 40/59/40 39/57/39 18/56/18 
f 40/59/40 17/58/17 20/60/20 41/61/41 
f 19/62/19 42/63/42 41/61/41 20/60/20 
f 19/62/19 22/64/22 43/65/43 42/63/42 
f 43/65/43 22/64/22 21/66/21 44/67/44 
f 44/67/44 21/66/21 23/68/23 45/69/45 
f 2/27/2 25/26/25 45/69/45 23/68/23 
f 25/26/25 24/25/24 46/70/24 47/71/46 
f 46/70/24 24/25/24 26/29/26 48/72/26 
f 27/31/27 49/73/27 48/72/26 26/29/26 
f 28/33/28 50/74/47 49/73/27 27/31/27 
f 29/35/29 51/75/29 50/74/47 28/33/28 
f 29/36/29 30/39/30 52/76/30 51/77/29 
f 52/76/30 30/39/30 31/40/31 53/78/31 
f 32/43/32 54/79/32 53/78/31 31/40/31 
f 54/79/32 32/43/32 33/44/33 55/80/33 
f 56/81/48 55/80/33 33/44/33 34/47/34 
f 35/49/35 57/82/49 56/81/48 34/47/34 
f 36/51/36 58/83/50 57/82/49 35/49/35 
f 37/53/37 59/84/37 58/83/50 36/51/36 
f 37/53/37 38/55/38 60/85/38 59/84/37 
f 39/57/39 61/86/39 60/85/38 38/55/38 
f 39/57/39 40/59/40 62/87/40 61/86/39 
f 62/87/40 40/59/40 41/61/41 63/88/41 
f 42/63/42 64/89/51 63/88/41 41/61/41 
f 42/63/42 43/65/43 65/90/52 64/89/51 
f 44/67/44 66/91/44 65/90/52 43/65/43 
f 45/69/45 67/92/45 66/91/44 44/67/44 
f 47/71/46 67/92/45 45/69/45 25/26/25 
f 47/71/46 46/70/24 68/93/53 
f 46/70/24 48/72/26 68/93/53 
f 48/72/26 49/73/27 68/93/53 
f 49/73/27 50/74/47 68/93/53 
f 50/74/47 51/75/29 68/93/53 
f 51/77/29 52/76/30 68/93/53 
f 52/76/30 53/78/31 68/93/53 
f 53/78/31 54/79/32 68/93/53 
f 54/79/32 55/80/33 68/93/53 
f 55/80/33 56/81/48 68/93/53 
f 56/81/48 57/82/49 68/93/53 
f 57/82/49 58/83/50 68/93/53 
f 58/83/50 59/84/37 68/93/53 
f 59/84/37 60/85/38 68/93/53 
f 60/85/38 61/86/39 68/93/53 
f 61/86/39 62/87/40 68/93/53 
f 62/87/40 63/88/41 68/93/53 
f 63/88/41 64/89/51 68/93/53 
f 64/89/51 65/90/52 68/93/53 
f 65/90/52 66/91/44 68/93/53 
f 66/91/44 67/92/45 68/93/53 
f 67/92/45 47/71/46 68/93/53 
f 69/94/54 70/95/55 71/96/56 72/97/57 
f 73/98/58 74/99/59 75/100/60 76/101/61 
f 76/102/61 75/103/60 71/104/56 70/105/55 
f 73/106/58 76/107/61 70/108/55 69/109/54 
f 74/110/59 73/111/58 69/112/54 72/113/57 
f 75/114/60 74/115/59 72/116/57 71/117/56 
f 77/118/62 78/119/63 79/120/64 
f 78/119/63 80/121/65 81/122/66 
f 78/119/63 81/122/66 79/120/64 
f 79/120/64 81/122/66 82/123/67 
f 80/121/65 83/124/68 84/125/69 
f 80/121/65 84/125/69 81/122/66 
f 81/122/66 84/125/69 85/126/70 
f 81/122/66 85/126/70 82/123/67 
f 82/123/67 85/126/70 86/127/71 
f 77/128/62 79/120/64 87/129/72 
f 79/120/64 82/123/67 88/130/73 
f 79/120/64 88/130/73 87/129/72 
f 87/129/72 88/130/73 89/131/74 
f 82/123/67 86/127/71 90/132/75 
f 82/123/67 90/132/75 88/130/73 
f 88/130/73 90/132/75 91/133/76 
f 88/130/73 91/133/76 89/131/74 
f 89/131/74 91/133/76 92/134/77 
f 77/135/62 87/136/72 93/137/78 
f 87/136/72 89/138/74 94/139/79 
f 87/136/72 94/139/79 93/137/78 
f 93/137/78 94/139/79 95/140/80 
f 89/131/74 92/134/77 96/141/81 
f 89/138/74 96/142/81 94/139/79 
f 94/139/79 96/142/81 97/143/82 
f 94/139/79 97/143/82 95/140/80 
f 95/140/80 97/143/82 98/144/83 
f 77/145/62 93/137/78 99/146/84 
f 93/137/78 95/140/80 100/147/85 
f 93/137/78 100/147/85 99/146/84 
f 99/146/84 100/147/85 101/148/86 
f 95/140/80 98/144/83 102/149/87 
f 95/140/80 102/149/87 100/147/85 
f 100/147/85 102/149/87 103/150/88 
f 100/147/85 103/150/88 101/148/86 
f 101/148/86 103/150/88 104/151/89 
f 77/152/62 99/146/84 78/119/63 
f 99/146/84 101/148/86 105/153/90 
f 99/146/84 105/153/90 78/119/63 
f 78/119/63 105/153/90 80/121/65 
f 101/148/86 104/151/89 106/154/91 
f 101/148/86 106/154/91 105/153/90 
f 105/153/90 106/154/91 107/155/92 
f 105/153/90 107/155/92 80/121/65 
f 80/121/65 107/155/92 83/124/68 
f 83/124/68 108/156/93 109/157/94 
f 108/156/93 110/158/95 111/159/96 
f 108/156/93 111/159/96 109/157/94 
f 109/157/94 111/159/96 112/160/97 
f 110/158/95 113/161/98 114/162/99 
f 110/158/95 114/162/99 111/159/96 
f 111/159/96 114/162/99 115/163/100 
f 111/159/96 115/163/100 112/160/97 
f 112/160/97 115/163/100 116/164/101 
f 86/127/71 117/165/102 118/166/103 
f 117/165/102 119/167/104 120/168/105 
f 117/165/102 120/168/105 118/166/103 
f 118/166/103 120/168/105 121/169/106 
f 119/167/104 116/164/101 122/170/107 
f 119/167/104 122/170/107 120/168/105 
f 120/168/105 122/170/107 123/171/108 
f 120/168/105 123/171/108 121/169/106 
f 121/169/106 123/171/108 124/172/109 
f 92/134/77 125/173/110 126/174/111 
f 125/173/110 127/175/112 128/176/113 
f 125/173/110 128/176/113 126/174/111 
f 126/174/111 128/176/113 129/177/114 
f 127/175/112 124/172/109 130/178/115 
f 127/175/112 130/178/115 128/176/113 
f 128/176/113 130/178/115 131/179/116 
f 128/176/113 131/179/116 129/177/114 
f 129/180/114 131/181/116 132/182/117 
f 98/144/83 133/183/118 134/184/119 
f 133/183/118 135/185/120 136/186/121 
f 133/183/118 136/186/121 134/184/119 
f 134/184/119 136/186/121 137/187/122 
f 135/185/120 132/182/117 138/188/123 
f 135/185/120 138/188/123 136/186/121 
f 136/186/121 138/188/123 139/189/124 
f 136/186/121 139/189/124 137/187/122 
f 137/187/122 139/189/124 140/190/125 
f 104/151/89 141/191/126 142/192/127 
f 141/191/126 143/193/128 144/194/129 
f 141/191/126 144/194/129 142/192/127 
f 142/192/127 144/194/129 145/195/130 
f 143/193/128 140/190/125 146/196/131 
f 143/193/128 146/196/131 144/194/129 
f 144/194/129 146/196/131 147/197/132 
f 144/194/129 147/197/132 145/195/130 
f 145/195/130 147/197/132 113/161/98 
f 116/164/101 119/167/104 112/160/97 
f 119/167/104 117/165/102 148/198/133 
f 119/167/104 148/198/133 112/160/97 
f 112/160/97 148/198/133 109/157/94 
f 117/165/102 86/127/71 85/126/70 
f 117/165/102 85/126/70 148/198/133 
f 148/198/133 85/126/70 84/125/69 
f 148/198/133 84/125/69 109/157/94 
f 109/157/94 84/125/69 83/124/68 
f 124/172/109 127/175/112 121/169/106 
f 127/175/112 125/173/110 149/199/134 
f 127/175/112 149/199/134 121/169/106 
f 121/169/106 149/199/134 118/166/103 
f 125/173/110 92/134/77 91/133/76 
f 125/173/110 91/133/76 149/199/134 
f 149/199/134 91/133/76 90/132/75 
f 149/199/134 90/132/75 118/166/103 
f 118/166/103 90/132/75 86/127/71 
f 132/182/117 135/185/120 129/180/114 
f 135/185/120 133/183/118 150/200/135 
f 135/185/120 150/200/135 129/180/114 
f 129/180/114 150/200/135 126/201/111 
f 133/183/118 98/144/83 97/143/82 
f 133/183/118 97/143/82 150/200/135 
f 150/200/135 97/143/82 96/142/81 
f 150/200/135 96/142/81 126/201/111 
f 126/174/111 96/141/81 92/134/77 
f 140/190/125 143/193/128 137/187/122 
f 143/193/128 141/191/126 151/202/136 
f 143/193/128 151/202/136 137/187/122 
f 137/187/122 151/202/136 134/184/119 
f 141/191/126 104/151/89 103/150/88 
f 141/191/126 103/150/88 151/202/136 
f 151/202/136 103/150/88 102/149/87 
f 151/202/136 102/149/87 134/184/119 
f 134/184/119 102/149/87 98/144/83 
f 113/161/98 110/158/95 145/195/130 
f 110/158/95 108/156/93 152/203/137 
f 110/158/95 152/203/137 145/195/130 
f 145/195/130 152/203/137 142/192/127 
f 108/156/93 83/124/68 107/155/92 
f 108/156/93 107/155/92 152/203/137 
f 152/203/137 107/155/92 106/154/91 
f 152/203/137 106/154/91 142/192/127 
f 142/192/127 106/154/91 104/151/89 
f 153/204/138 154/205/139 155/206/140 
f 154/205/139 156/207/141 157/208/142 
f 154/205/139 157/208/142 155/206/140 
f 155/206/140 157/208/142 158/209/143 
f 156/207/141 124/172/109 123/171/108 
f 156/207/141 123/171/108 157/208/142 
f 157/208/142 123/171/108 122/170/107 
f 157/208/142 122/170/107 158/209/143 
f 158/209/143 122/170/107 116/164/101 
f 153/210/138 159/211/144 154/212/139 
f 159/211/144 160/213/145 161/214/146 
f 159/211/144 161/214/146 154/212/139 
f 154/205/139 161/215/146 156/207/141 
f 160/213/145 132/182/117 131/181/116 
f 160/213/145 131/181/116 161/214/146 
f 161/215/146 131/179/116 130/178/115 
f 161/215/146 130/178/115 156/207/141 
f 156/207/141 130/178/115 124/172/109 
f 153/216/138 162/217/147 159/211/144 
f 162/217/147 163/218/148 164/219/149 
f 162/217/147 164/219/149 159/211/144 
f 159/211/144 164/219/149 160/213/145 
f 163/218/148 140/190/125 139/189/124 
f 163/218/148 139/189/124 164/219/149 
f 164/219/149 139/189/124 138/188/123 
f 164/219/149 138/188/123 160/213/145 
f 160/213/145 138/188/123 132/182/117 
f 153/220/138 165/221/150 162/217/147 
f 165/221/150 166/222/151 167/223/152 
f 165/221/150 167/223/152 162/217/147 
f 162/217/147 167/223/152 163/218/148 
f 166/222/151 113/161/98 147/197/132 
f 166/222/151 147/197/132 167/223/152 
f 167/223/152 147/197/132 146/196/131 
f 167/223/152 146/196/131 163/218/148 
f 163/218/148 146/196/131 140/190/125 
f 153/224/138 155/206/140 165/221/150 
f 155/206/140 158/209/143 168/225/153 
f 155/206/140 168/225/153 165/221/150 
f 165/221/150 168/225/153 166/222/151 
f 158/209/143 116/164/101 115/163/100 
f 158/209/143 115/163/100 168/225/153 
f 168/225/153 115/163/100 114/162/99 
f 168/225/153 114/162/99 166/222/151 
f 166/222/151 114/162/99 113/161/98 
# 61 polygons - 202 triangles

